# xmcd CD database file
# Copyright (C) 1997 Ti Kan
# 
# Track frame offsets:
#     182
#     15475
#     29992
#     44675
#     82467
#     96220
#     124122
#     138952
#     156210
#     171677
#     184375
#     204480
#     218055
# 
# Disc length: 3334 seconds
# 
# Revision: 1
# Processed by: cddbd v1.4b41PL1 Copyright (c) Steve Scherf et al.
# Submitted via: DiscPlay 4.0.3
# 
DISCID=c90d040d
DTITLE=Homewreckers - Out Of The Shadows
DYEAR=1900
DGENRE=
TTITLE0=You Know It Ain't Right
TTITLE1=Looking For My Baby
TTITLE2=I'm Crying
TTITLE3=Early In The Morning
TTITLE4=Little Mixed Up
TTITLE5=Drifting
TTITLE6=Medicine Man
TTITLE7=Like A Woman
TTITLE8=Too Close Together
TTITLE9=Wreck Your Body
TTITLE10=She's Wicked
TTITLE11=Sonny Terry's Blues
TTITLE12=Rockin' Itis
EXTD=
EXTT0=
EXTT1=
EXTT2=
EXTT3=
EXTT4=
EXTT5=
EXTT6=
EXTT7=
EXTT8=
EXTT9=
EXTT10=
EXTT11=
EXTT12=
PLAYORDER=
